<?xml version="1.0" encoding="utf-8"?>
<svg version="1.1" xmlns:xlink="http://www.w3.org/1999/xlink" width="158px" height="257px" xmlns="http://www.w3.org/2000/svg">
  <defs>
    <pattern id="BGPattern" patternUnits="userSpaceOnUse" alignment="0 0" imageRepeat="None" />
    <mask fill="white" id="Clip105">
      <path d="M 2.9260289315543773 197.88287493565804  L 157.23945197924232 248.87342623108134  L 154.7550371734036 256.4360879951515  L 0.44161414556401724 205.44553709785612  L 2.9260289315543773 197.88287493565804  Z M 2.9260289315543773 179.93693710579305  L 157.23945197924232 230.92748820215246  L 154.7550371734036 238.49014996622267  L 0.44161414556401724 187.4995984717354  L 2.9260289315543773 179.93693710579305  Z M 157.23945197924232 212.98155017322358  L 154.7550371734036 220.5442119372938  L 0.44161414556401724 169.5536606418704  L 2.9260289315543773 161.99099927592806  L 157.23945197924232 212.98155017322358  Z M 154.7550371734036 202.59827390836483  L 0.44161414556401724 151.60772281200542  L 2.9260289315543773 144.04506144606307  L 157.23945197924232 195.0356121442946  L 154.7550371734036 202.59827390836483  Z M 0.44161414556401724 133.66178498214035  L 2.9260289315543773 126.09912381526192  L 157.23945197924232 177.0896743144296  L 154.7550371734036 184.65233568037195  L 0.44161414556401724 133.66178498214035  Z M 2.9260289315543773 108.15318598539693  L 157.23945197924232 159.14373668362845  L 154.7550371734036 166.70639785050685  L 0.44161414556401724 115.71584715227533  L 2.9260289315543773 108.15318598539693  Z M 157.23945197924232 141.19779885376352  L 154.7550371734036 148.76046002064194  L 0.44161414556401724 97.76990952147429  L 2.9260289315543773 90.20724815553194  L 157.23945197924232 141.19779885376352  Z M 154.7550371734036 130.8145223898409  L 0.44161414556401724 79.8239716916093  L 2.9260289315543773 72.26131032566695  L 157.23945197924232 123.25186102389854  L 154.7550371734036 130.8145223898409  Z M 0.44161414556401724 61.87803386174431  L 2.9260289315543773 54.31537249580197  L 157.23945197924232 105.30592319403354  L 154.7550371734036 112.86858455997589  L 0.44161414556401724 61.87803386174431  Z M 2.9260289315543773 36.36943466593698  L 157.23945197924232 87.35998536416852  L 154.7550371734036 94.92264673011087  L 0.44161414556401724 43.932096031879325  L 2.9260289315543773 36.36943466593698  Z M 157.23945197924232 69.41404753430294  L 154.7550371734036 76.97670890024528  L 0.44161414556401724 25.986158202013712  L 2.9260289315543773 18.42349681616497  L 157.23945197924232 69.41404753430294  Z M 154.7550371734036 59.03077107038092  L 0.44161414556401724 8.040220352242955  L 2.9260289315543773 0.4775590062070023  L 157.23945197924232 51.468109704438575  L 154.7550371734036 59.03077107038092  Z " fill-rule="evenodd" />
    </mask>
  </defs>
  <g transform="matrix(1 0 0 1 -8 99 )">
    <path d="M 2.9260289315543773 197.88287493565804  L 157.23945197924232 248.87342623108134  L 154.7550371734036 256.4360879951515  L 0.44161414556401724 205.44553709785612  L 2.9260289315543773 197.88287493565804  Z M 2.9260289315543773 179.93693710579305  L 157.23945197924232 230.92748820215246  L 154.7550371734036 238.49014996622267  L 0.44161414556401724 187.4995984717354  L 2.9260289315543773 179.93693710579305  Z M 157.23945197924232 212.98155017322358  L 154.7550371734036 220.5442119372938  L 0.44161414556401724 169.5536606418704  L 2.9260289315543773 161.99099927592806  L 157.23945197924232 212.98155017322358  Z M 154.7550371734036 202.59827390836483  L 0.44161414556401724 151.60772281200542  L 2.9260289315543773 144.04506144606307  L 157.23945197924232 195.0356121442946  L 154.7550371734036 202.59827390836483  Z M 0.44161414556401724 133.66178498214035  L 2.9260289315543773 126.09912381526192  L 157.23945197924232 177.0896743144296  L 154.7550371734036 184.65233568037195  L 0.44161414556401724 133.66178498214035  Z M 2.9260289315543773 108.15318598539693  L 157.23945197924232 159.14373668362845  L 154.7550371734036 166.70639785050685  L 0.44161414556401724 115.71584715227533  L 2.9260289315543773 108.15318598539693  Z M 157.23945197924232 141.19779885376352  L 154.7550371734036 148.76046002064194  L 0.44161414556401724 97.76990952147429  L 2.9260289315543773 90.20724815553194  L 157.23945197924232 141.19779885376352  Z M 154.7550371734036 130.8145223898409  L 0.44161414556401724 79.8239716916093  L 2.9260289315543773 72.26131032566695  L 157.23945197924232 123.25186102389854  L 154.7550371734036 130.8145223898409  Z M 0.44161414556401724 61.87803386174431  L 2.9260289315543773 54.31537249580197  L 157.23945197924232 105.30592319403354  L 154.7550371734036 112.86858455997589  L 0.44161414556401724 61.87803386174431  Z M 2.9260289315543773 36.36943466593698  L 157.23945197924232 87.35998536416852  L 154.7550371734036 94.92264673011087  L 0.44161414556401724 43.932096031879325  L 2.9260289315543773 36.36943466593698  Z M 157.23945197924232 69.41404753430294  L 154.7550371734036 76.97670890024528  L 0.44161414556401724 25.986158202013712  L 2.9260289315543773 18.42349681616497  L 157.23945197924232 69.41404753430294  Z M 154.7550371734036 59.03077107038092  L 0.44161414556401724 8.040220352242955  L 2.9260289315543773 0.4775590062070023  L 157.23945197924232 51.468109704438575  L 154.7550371734036 59.03077107038092  Z " fill-rule="nonzero" fill="rgba(244, 80, 99, 1)" stroke="none" transform="matrix(1 0 0 1 8 -99 )" class="fill" />
    <path d="M 2.9260289315543773 197.88287493565804  L 157.23945197924232 248.87342623108134  L 154.7550371734036 256.4360879951515  L 0.44161414556401724 205.44553709785612  L 2.9260289315543773 197.88287493565804  Z " stroke-width="0" stroke-dasharray="0" stroke="rgba(121, 121, 121, 1)" fill="none" transform="matrix(1 0 0 1 8 -99 )" class="stroke" mask="url(#Clip105)" />
    <path d="M 2.9260289315543773 179.93693710579305  L 157.23945197924232 230.92748820215246  L 154.7550371734036 238.49014996622267  L 0.44161414556401724 187.4995984717354  L 2.9260289315543773 179.93693710579305  Z " stroke-width="0" stroke-dasharray="0" stroke="rgba(121, 121, 121, 1)" fill="none" transform="matrix(1 0 0 1 8 -99 )" class="stroke" mask="url(#Clip105)" />
    <path d="M 157.23945197924232 212.98155017322358  L 154.7550371734036 220.5442119372938  L 0.44161414556401724 169.5536606418704  L 2.9260289315543773 161.99099927592806  L 157.23945197924232 212.98155017322358  Z " stroke-width="0" stroke-dasharray="0" stroke="rgba(121, 121, 121, 1)" fill="none" transform="matrix(1 0 0 1 8 -99 )" class="stroke" mask="url(#Clip105)" />
    <path d="M 154.7550371734036 202.59827390836483  L 0.44161414556401724 151.60772281200542  L 2.9260289315543773 144.04506144606307  L 157.23945197924232 195.0356121442946  L 154.7550371734036 202.59827390836483  Z " stroke-width="0" stroke-dasharray="0" stroke="rgba(121, 121, 121, 1)" fill="none" transform="matrix(1 0 0 1 8 -99 )" class="stroke" mask="url(#Clip105)" />
    <path d="M 0.44161414556401724 133.66178498214035  L 2.9260289315543773 126.09912381526192  L 157.23945197924232 177.0896743144296  L 154.7550371734036 184.65233568037195  L 0.44161414556401724 133.66178498214035  Z " stroke-width="0" stroke-dasharray="0" stroke="rgba(121, 121, 121, 1)" fill="none" transform="matrix(1 0 0 1 8 -99 )" class="stroke" mask="url(#Clip105)" />
    <path d="M 2.9260289315543773 108.15318598539693  L 157.23945197924232 159.14373668362845  L 154.7550371734036 166.70639785050685  L 0.44161414556401724 115.71584715227533  L 2.9260289315543773 108.15318598539693  Z " stroke-width="0" stroke-dasharray="0" stroke="rgba(121, 121, 121, 1)" fill="none" transform="matrix(1 0 0 1 8 -99 )" class="stroke" mask="url(#Clip105)" />
    <path d="M 157.23945197924232 141.19779885376352  L 154.7550371734036 148.76046002064194  L 0.44161414556401724 97.76990952147429  L 2.9260289315543773 90.20724815553194  L 157.23945197924232 141.19779885376352  Z " stroke-width="0" stroke-dasharray="0" stroke="rgba(121, 121, 121, 1)" fill="none" transform="matrix(1 0 0 1 8 -99 )" class="stroke" mask="url(#Clip105)" />
    <path d="M 154.7550371734036 130.8145223898409  L 0.44161414556401724 79.8239716916093  L 2.9260289315543773 72.26131032566695  L 157.23945197924232 123.25186102389854  L 154.7550371734036 130.8145223898409  Z " stroke-width="0" stroke-dasharray="0" stroke="rgba(121, 121, 121, 1)" fill="none" transform="matrix(1 0 0 1 8 -99 )" class="stroke" mask="url(#Clip105)" />
    <path d="M 0.44161414556401724 61.87803386174431  L 2.9260289315543773 54.31537249580197  L 157.23945197924232 105.30592319403354  L 154.7550371734036 112.86858455997589  L 0.44161414556401724 61.87803386174431  Z " stroke-width="0" stroke-dasharray="0" stroke="rgba(121, 121, 121, 1)" fill="none" transform="matrix(1 0 0 1 8 -99 )" class="stroke" mask="url(#Clip105)" />
    <path d="M 2.9260289315543773 36.36943466593698  L 157.23945197924232 87.35998536416852  L 154.7550371734036 94.92264673011087  L 0.44161414556401724 43.932096031879325  L 2.9260289315543773 36.36943466593698  Z " stroke-width="0" stroke-dasharray="0" stroke="rgba(121, 121, 121, 1)" fill="none" transform="matrix(1 0 0 1 8 -99 )" class="stroke" mask="url(#Clip105)" />
    <path d="M 157.23945197924232 69.41404753430294  L 154.7550371734036 76.97670890024528  L 0.44161414556401724 25.986158202013712  L 2.9260289315543773 18.42349681616497  L 157.23945197924232 69.41404753430294  Z " stroke-width="0" stroke-dasharray="0" stroke="rgba(121, 121, 121, 1)" fill="none" transform="matrix(1 0 0 1 8 -99 )" class="stroke" mask="url(#Clip105)" />
    <path d="M 154.7550371734036 59.03077107038092  L 0.44161414556401724 8.040220352242955  L 2.9260289315543773 0.4775590062070023  L 157.23945197924232 51.468109704438575  L 154.7550371734036 59.03077107038092  Z " stroke-width="0" stroke-dasharray="0" stroke="rgba(121, 121, 121, 1)" fill="none" transform="matrix(1 0 0 1 8 -99 )" class="stroke" mask="url(#Clip105)" />
  </g>
</svg>