<?xml version="1.0" encoding="utf-8"?>
<svg version="1.1" xmlns:xlink="http://www.w3.org/1999/xlink" width="70px" height="195px" xmlns="http://www.w3.org/2000/svg">
  <defs>
    <pattern id="BGPattern" patternUnits="userSpaceOnUse" alignment="0 0" imageRepeat="None" />
    <mask fill="white" id="Clip103">
      <path d="M 4.612492484230097 104.88061342958204  C -2.7917239974686696 89.26246223740564  -1.1963087682174034 70.85045722469333  8.783307829656879 56.74701431352824  C 8.783307829656879 56.74701431352824  44.78483616585457 5.868756297936667  44.78483616585457 5.868756297936667  C 49.22359026156205 -0.4042018565848865  57.8930542374655 -1.8811166965716324  64.14862568890594 2.569974449413533  C 67.81911697310106 5.181676963701752  70 9.415023836510008  70 13.928170142605104  C 70 13.928170142605104  70 181.07294876356485  70 181.07294876356485  C 70 188.76464627652192  63.78192914854432 195  56.11155024928797 195  C 50.75140683456096 195  45.86971555358532 191.90691134721888  43.56834824103469 187.05250234740456  C 43.56834824103469 187.05250234740456  4.612492484230097 104.88061342958204  4.612492484230097 104.88061342958204  Z " fill-rule="evenodd" />
    </mask>
  </defs>
  <g transform="matrix(1 0 0 1 -98 61 )">
    <path d="M 4.612492484230097 104.88061342958204  C -2.7917239974686696 89.26246223740564  -1.1963087682174034 70.85045722469333  8.783307829656879 56.74701431352824  C 8.783307829656879 56.74701431352824  44.78483616585457 5.868756297936667  44.78483616585457 5.868756297936667  C 49.22359026156205 -0.4042018565848865  57.8930542374655 -1.8811166965716324  64.14862568890594 2.569974449413533  C 67.81911697310106 5.181676963701752  70 9.415023836510008  70 13.928170142605104  C 70 13.928170142605104  70 181.07294876356485  70 181.07294876356485  C 70 188.76464627652192  63.78192914854432 195  56.11155024928797 195  C 50.75140683456096 195  45.86971555358532 191.90691134721888  43.56834824103469 187.05250234740456  C 43.56834824103469 187.05250234740456  4.612492484230097 104.88061342958204  4.612492484230097 104.88061342958204  Z " fill-rule="nonzero" fill="rgba(247, 132, 145, 1)" stroke="none" transform="matrix(1 0 0 1 98 -61 )" class="fill" />
    <path d="M 4.612492484230097 104.88061342958204  C -2.7917239974686696 89.26246223740564  -1.1963087682174034 70.85045722469333  8.783307829656879 56.74701431352824  C 8.783307829656879 56.74701431352824  44.78483616585457 5.868756297936667  44.78483616585457 5.868756297936667  C 49.22359026156205 -0.4042018565848865  57.8930542374655 -1.8811166965716324  64.14862568890594 2.569974449413533  C 67.81911697310106 5.181676963701752  70 9.415023836510008  70 13.928170142605104  C 70 13.928170142605104  70 181.07294876356485  70 181.07294876356485  C 70 188.76464627652192  63.78192914854432 195  56.11155024928797 195  C 50.75140683456096 195  45.86971555358532 191.90691134721888  43.56834824103469 187.05250234740456  C 43.56834824103469 187.05250234740456  4.612492484230097 104.88061342958204  4.612492484230097 104.88061342958204  Z " stroke-width="0" stroke-dasharray="0" stroke="rgba(121, 121, 121, 1)" fill="none" transform="matrix(1 0 0 1 98 -61 )" class="stroke" mask="url(#Clip103)" />
  </g>
</svg>