<?xml version="1.0" encoding="utf-8"?>
<svg version="1.1" xmlns:xlink="http://www.w3.org/1999/xlink" width="12px" height="14px" xmlns="http://www.w3.org/2000/svg">
  <defs>
    <pattern id="BGPattern" patternUnits="userSpaceOnUse" alignment="0 0" imageRepeat="None" />
    <mask fill="white" id="Clip56">
      <path d="M 4.5 3.828125  C 4.5 3.828125  7.6249345105675275 3.8281207789093514  7.6249345105675275 3.8281207789093514  C 7.795973392095675 3.600414423104098  8.068286052041003 3.453125  8.375 3.453125  C 8.892766952937563 3.453125  9.3125 3.87285804706255  9.3125 4.390625  C 9.3125 4.90839195293745  8.892766952937563 5.328125  8.375 5.328125  C 8.015252749597039 5.328125  7.702831806278482 5.125496991849786  7.545641623242773 4.828145428748712  C 7.545641623242773 4.828145428748712  4.5 4.828125  4.5 4.828125  C 4.5 4.828125  4.50001983876291 9.034957642338668  4.50001983876291 9.034957642338668  C 4.648328244336881 9.128649012077858  4.768536402966674 9.26278796867257  4.845147622252625 9.421877819722681  C 4.845147622252625 9.421877819722681  9.769322776754507 9.421870778266793  9.769322776754507 9.421870778266793  C 9.935394211730909 9.158977153476712  10.228556846867377 8.984375  10.5625 8.984375  C 11.080266952937563 8.984375  11.5 9.40410804706255  11.5 9.921875  C 11.5 10.43964195293745  11.080266952937563 10.859375  10.5625 10.859375  C 10.228563459471843 10.859375  9.935405821918721 10.684779761254731  9.769332642338668 10.421894838763137  C 9.769332642338668 10.421894838763137  4.725528994829347 10.421898057969315  4.725528994829347 10.421898057969315  C 4.661677460939245 10.499825832216175  4.58551806899186 10.567280272038602  4.50001983876291 10.621292357661332  C 4.50001983876291 10.621292357661332  4.5 12.5625  4.5 12.5625  C 4.5 12.5625  7.722447776754507 12.562495778266793  7.722447776754507 12.562495778266793  C 7.888519211730909 12.299602153476712  8.181681846867377 12.125  8.515625 12.125  C 9.033391952937563 12.125  9.453125 12.54473304706255  9.453125 13.0625  C 9.453125 13.58026695293745  9.033391952937563 14  8.515625 14  C 8.181688459471843 14  7.888530821918721 13.825404761254731  7.722457642338668 13.562519838763137  C 7.722457642338668 13.562519838763137  4.5 13.5625  4.5 13.5625  C 3.94771525016904 13.5625  3.5 13.114784749830847  3.5 12.5625  C 3.5 12.5625  3.499995778267021 10.621302223245266  3.499995778267021 10.621302223245266  C 3.237102153476826 10.455230788268977  3.0625 10.162068153132736  3.0625 9.828125  C 3.0625 9.494181846867264  3.237102153476826 9.201019211731023  3.499995778267021 9.034947776754734  C 3.499995778267021 9.034947776754734  3.5 4.828125  3.5 4.828125  C 3.5 4.2758402501691535  3.94771525016904 3.828125  4.5 3.828125  Z M 3.38077665948731 1.2841920962084714  C 3.9870114895497863 0.4966409469474229  4.945712678700147 0.01064655359130029  5.965961293897635 0.00017464401764755166  C 6.999371649390014 0.00017464401764755166  7.984731582963832 0.4826849963536688  8.59776403633714 1.2789945316967533  C 10.365624198509067 1.3076818514075512  11.814651393754957 2.7418366789535185  11.843310773641406 4.510954273900779  C 11.843310773641406 6.305025465575113  10.405122892094369 7.817259985234841  8.61922334051269 7.846240032697778  C 8.61922334051269 7.846240032697778  5.556250000000091 7.8466796875  5.556250000000091 7.8466796875  C 5.556250000000091 7.2943949376691535  6.003965250169131 6.846679687499886  6.556250000000091 6.846679687499886  C 6.556250000000091 6.846679687499886  8.565000000000055 6.8466796875  8.565000000000055 6.8466796875  C 9.823409562522556 6.8466796875  10.84375 5.825342823814253  10.84375 4.565216064453125  C 10.84375 3.3050893050919967  9.823409562522556 2.28375244140625  8.565000000000055 2.28375244140625  C 8.512417509425177 2.28375244140625  8.460172392582535 2.285527170107116  8.408370828328316 2.2890578879022314  C 8.226274042783643 2.3032669995890274  8.028958259957108 2.2186805398102933  7.9290779866901175 2.06621952609089  C 7.513226122262495 1.4108685882288228  6.789568410366883 1  6 1  C 5.218327908224637 1  4.5051402546955615 1.3966793856402546  4.087534783752744 2.040452889862081  C 3.9897177733937497 2.194624664729645  3.803211101083434 2.3026380665229453  3.6213722793959278 2.291181857406059  C 3.5620567933365237 2.2865790374221433  3.495055375085485 2.28375244140625  3.4349999999999454 2.28375244140625  C 2.1765904374774436 2.28375244140625  1.15625 3.3050893050919967  1.15625 4.565216064453125  C 1.15625 5.0964715549234825  1.337555011465156 5.598552721636224  1.664909543297199 6.002158174485089  C 1.7550088663670067 6.1132443961589615  1.8785107273301946 6.217691037160307  2.035415126186308 6.315498097489126  C 2.4937928246627052 6.5968250583700865  2.7880884284572858 7.102003018197706  2.7936654490181354 7.639037332838826  C 2.5231839225784825 7.639037332838826  2.2127160080294743 7.5568531965135435  1.8906974077563063 7.391204171072786  C 1.8427407528461117 7.366046966340377  1.7684136420207324 7.325854749913561  1.7200783870739542 7.297886185206721  C 1.3818550310984392 7.1021776526373515  1.0700549573366516 6.85623168151767  0.8882544060570581 6.63208420014098  C 0.4176796673064018 6.051898156985203  0.15625 5.327930786674642  0.15625 4.565216064453125  C 0.15625 2.771144872778791  1.5948771079056314 1.3131721436714088  3.38077665948731 1.2841920962084714  Z " fill-rule="evenodd" />
    </mask>
  </defs>
  <g transform="matrix(1 0 0 1 -14 -805 )">
    <path d="M 4.5 3.828125  C 4.5 3.828125  7.6249345105675275 3.8281207789093514  7.6249345105675275 3.8281207789093514  C 7.795973392095675 3.600414423104098  8.068286052041003 3.453125  8.375 3.453125  C 8.892766952937563 3.453125  9.3125 3.87285804706255  9.3125 4.390625  C 9.3125 4.90839195293745  8.892766952937563 5.328125  8.375 5.328125  C 8.015252749597039 5.328125  7.702831806278482 5.125496991849786  7.545641623242773 4.828145428748712  C 7.545641623242773 4.828145428748712  4.5 4.828125  4.5 4.828125  C 4.5 4.828125  4.50001983876291 9.034957642338668  4.50001983876291 9.034957642338668  C 4.648328244336881 9.128649012077858  4.768536402966674 9.26278796867257  4.845147622252625 9.421877819722681  C 4.845147622252625 9.421877819722681  9.769322776754507 9.421870778266793  9.769322776754507 9.421870778266793  C 9.935394211730909 9.158977153476712  10.228556846867377 8.984375  10.5625 8.984375  C 11.080266952937563 8.984375  11.5 9.40410804706255  11.5 9.921875  C 11.5 10.43964195293745  11.080266952937563 10.859375  10.5625 10.859375  C 10.228563459471843 10.859375  9.935405821918721 10.684779761254731  9.769332642338668 10.421894838763137  C 9.769332642338668 10.421894838763137  4.725528994829347 10.421898057969315  4.725528994829347 10.421898057969315  C 4.661677460939245 10.499825832216175  4.58551806899186 10.567280272038602  4.50001983876291 10.621292357661332  C 4.50001983876291 10.621292357661332  4.5 12.5625  4.5 12.5625  C 4.5 12.5625  7.722447776754507 12.562495778266793  7.722447776754507 12.562495778266793  C 7.888519211730909 12.299602153476712  8.181681846867377 12.125  8.515625 12.125  C 9.033391952937563 12.125  9.453125 12.54473304706255  9.453125 13.0625  C 9.453125 13.58026695293745  9.033391952937563 14  8.515625 14  C 8.181688459471843 14  7.888530821918721 13.825404761254731  7.722457642338668 13.562519838763137  C 7.722457642338668 13.562519838763137  4.5 13.5625  4.5 13.5625  C 3.94771525016904 13.5625  3.5 13.114784749830847  3.5 12.5625  C 3.5 12.5625  3.499995778267021 10.621302223245266  3.499995778267021 10.621302223245266  C 3.237102153476826 10.455230788268977  3.0625 10.162068153132736  3.0625 9.828125  C 3.0625 9.494181846867264  3.237102153476826 9.201019211731023  3.499995778267021 9.034947776754734  C 3.499995778267021 9.034947776754734  3.5 4.828125  3.5 4.828125  C 3.5 4.2758402501691535  3.94771525016904 3.828125  4.5 3.828125  Z M 3.38077665948731 1.2841920962084714  C 3.9870114895497863 0.4966409469474229  4.945712678700147 0.01064655359130029  5.965961293897635 0.00017464401764755166  C 6.999371649390014 0.00017464401764755166  7.984731582963832 0.4826849963536688  8.59776403633714 1.2789945316967533  C 10.365624198509067 1.3076818514075512  11.814651393754957 2.7418366789535185  11.843310773641406 4.510954273900779  C 11.843310773641406 6.305025465575113  10.405122892094369 7.817259985234841  8.61922334051269 7.846240032697778  C 8.61922334051269 7.846240032697778  5.556250000000091 7.8466796875  5.556250000000091 7.8466796875  C 5.556250000000091 7.2943949376691535  6.003965250169131 6.846679687499886  6.556250000000091 6.846679687499886  C 6.556250000000091 6.846679687499886  8.565000000000055 6.8466796875  8.565000000000055 6.8466796875  C 9.823409562522556 6.8466796875  10.84375 5.825342823814253  10.84375 4.565216064453125  C 10.84375 3.3050893050919967  9.823409562522556 2.28375244140625  8.565000000000055 2.28375244140625  C 8.512417509425177 2.28375244140625  8.460172392582535 2.285527170107116  8.408370828328316 2.2890578879022314  C 8.226274042783643 2.3032669995890274  8.028958259957108 2.2186805398102933  7.9290779866901175 2.06621952609089  C 7.513226122262495 1.4108685882288228  6.789568410366883 1  6 1  C 5.218327908224637 1  4.5051402546955615 1.3966793856402546  4.087534783752744 2.040452889862081  C 3.9897177733937497 2.194624664729645  3.803211101083434 2.3026380665229453  3.6213722793959278 2.291181857406059  C 3.5620567933365237 2.2865790374221433  3.495055375085485 2.28375244140625  3.4349999999999454 2.28375244140625  C 2.1765904374774436 2.28375244140625  1.15625 3.3050893050919967  1.15625 4.565216064453125  C 1.15625 5.0964715549234825  1.337555011465156 5.598552721636224  1.664909543297199 6.002158174485089  C 1.7550088663670067 6.1132443961589615  1.8785107273301946 6.217691037160307  2.035415126186308 6.315498097489126  C 2.4937928246627052 6.5968250583700865  2.7880884284572858 7.102003018197706  2.7936654490181354 7.639037332838826  C 2.5231839225784825 7.639037332838826  2.2127160080294743 7.5568531965135435  1.8906974077563063 7.391204171072786  C 1.8427407528461117 7.366046966340377  1.7684136420207324 7.325854749913561  1.7200783870739542 7.297886185206721  C 1.3818550310984392 7.1021776526373515  1.0700549573366516 6.85623168151767  0.8882544060570581 6.63208420014098  C 0.4176796673064018 6.051898156985203  0.15625 5.327930786674642  0.15625 4.565216064453125  C 0.15625 2.771144872778791  1.5948771079056314 1.3131721436714088  3.38077665948731 1.2841920962084714  Z " fill-rule="nonzero" fill="rgba(8, 64, 248, 1)" stroke="none" transform="matrix(1 0 0 1 14 805 )" class="fill" />
    <path d="M 4.5 3.828125  C 4.5 3.828125  7.6249345105675275 3.8281207789093514  7.6249345105675275 3.8281207789093514  C 7.795973392095675 3.600414423104098  8.068286052041003 3.453125  8.375 3.453125  C 8.892766952937563 3.453125  9.3125 3.87285804706255  9.3125 4.390625  C 9.3125 4.90839195293745  8.892766952937563 5.328125  8.375 5.328125  C 8.015252749597039 5.328125  7.702831806278482 5.125496991849786  7.545641623242773 4.828145428748712  C 7.545641623242773 4.828145428748712  4.5 4.828125  4.5 4.828125  C 4.5 4.828125  4.50001983876291 9.034957642338668  4.50001983876291 9.034957642338668  C 4.648328244336881 9.128649012077858  4.768536402966674 9.26278796867257  4.845147622252625 9.421877819722681  C 4.845147622252625 9.421877819722681  9.769322776754507 9.421870778266793  9.769322776754507 9.421870778266793  C 9.935394211730909 9.158977153476712  10.228556846867377 8.984375  10.5625 8.984375  C 11.080266952937563 8.984375  11.5 9.40410804706255  11.5 9.921875  C 11.5 10.43964195293745  11.080266952937563 10.859375  10.5625 10.859375  C 10.228563459471843 10.859375  9.935405821918721 10.684779761254731  9.769332642338668 10.421894838763137  C 9.769332642338668 10.421894838763137  4.725528994829347 10.421898057969315  4.725528994829347 10.421898057969315  C 4.661677460939245 10.499825832216175  4.58551806899186 10.567280272038602  4.50001983876291 10.621292357661332  C 4.50001983876291 10.621292357661332  4.5 12.5625  4.5 12.5625  C 4.5 12.5625  7.722447776754507 12.562495778266793  7.722447776754507 12.562495778266793  C 7.888519211730909 12.299602153476712  8.181681846867377 12.125  8.515625 12.125  C 9.033391952937563 12.125  9.453125 12.54473304706255  9.453125 13.0625  C 9.453125 13.58026695293745  9.033391952937563 14  8.515625 14  C 8.181688459471843 14  7.888530821918721 13.825404761254731  7.722457642338668 13.562519838763137  C 7.722457642338668 13.562519838763137  4.5 13.5625  4.5 13.5625  C 3.94771525016904 13.5625  3.5 13.114784749830847  3.5 12.5625  C 3.5 12.5625  3.499995778267021 10.621302223245266  3.499995778267021 10.621302223245266  C 3.237102153476826 10.455230788268977  3.0625 10.162068153132736  3.0625 9.828125  C 3.0625 9.494181846867264  3.237102153476826 9.201019211731023  3.499995778267021 9.034947776754734  C 3.499995778267021 9.034947776754734  3.5 4.828125  3.5 4.828125  C 3.5 4.2758402501691535  3.94771525016904 3.828125  4.5 3.828125  Z " stroke-width="0" stroke-dasharray="0" stroke="rgba(121, 121, 121, 1)" fill="none" transform="matrix(1 0 0 1 14 805 )" class="stroke" mask="url(#Clip56)" />
    <path d="M 3.38077665948731 1.2841920962084714  C 3.9870114895497863 0.4966409469474229  4.945712678700147 0.01064655359130029  5.965961293897635 0.00017464401764755166  C 6.999371649390014 0.00017464401764755166  7.984731582963832 0.4826849963536688  8.59776403633714 1.2789945316967533  C 10.365624198509067 1.3076818514075512  11.814651393754957 2.7418366789535185  11.843310773641406 4.510954273900779  C 11.843310773641406 6.305025465575113  10.405122892094369 7.817259985234841  8.61922334051269 7.846240032697778  C 8.61922334051269 7.846240032697778  5.556250000000091 7.8466796875  5.556250000000091 7.8466796875  C 5.556250000000091 7.2943949376691535  6.003965250169131 6.846679687499886  6.556250000000091 6.846679687499886  C 6.556250000000091 6.846679687499886  8.565000000000055 6.8466796875  8.565000000000055 6.8466796875  C 9.823409562522556 6.8466796875  10.84375 5.825342823814253  10.84375 4.565216064453125  C 10.84375 3.3050893050919967  9.823409562522556 2.28375244140625  8.565000000000055 2.28375244140625  C 8.512417509425177 2.28375244140625  8.460172392582535 2.285527170107116  8.408370828328316 2.2890578879022314  C 8.226274042783643 2.3032669995890274  8.028958259957108 2.2186805398102933  7.9290779866901175 2.06621952609089  C 7.513226122262495 1.4108685882288228  6.789568410366883 1  6 1  C 5.218327908224637 1  4.5051402546955615 1.3966793856402546  4.087534783752744 2.040452889862081  C 3.9897177733937497 2.194624664729645  3.803211101083434 2.3026380665229453  3.6213722793959278 2.291181857406059  C 3.5620567933365237 2.2865790374221433  3.495055375085485 2.28375244140625  3.4349999999999454 2.28375244140625  C 2.1765904374774436 2.28375244140625  1.15625 3.3050893050919967  1.15625 4.565216064453125  C 1.15625 5.0964715549234825  1.337555011465156 5.598552721636224  1.664909543297199 6.002158174485089  C 1.7550088663670067 6.1132443961589615  1.8785107273301946 6.217691037160307  2.035415126186308 6.315498097489126  C 2.4937928246627052 6.5968250583700865  2.7880884284572858 7.102003018197706  2.7936654490181354 7.639037332838826  C 2.5231839225784825 7.639037332838826  2.2127160080294743 7.5568531965135435  1.8906974077563063 7.391204171072786  C 1.8427407528461117 7.366046966340377  1.7684136420207324 7.325854749913561  1.7200783870739542 7.297886185206721  C 1.3818550310984392 7.1021776526373515  1.0700549573366516 6.85623168151767  0.8882544060570581 6.63208420014098  C 0.4176796673064018 6.051898156985203  0.15625 5.327930786674642  0.15625 4.565216064453125  C 0.15625 2.771144872778791  1.5948771079056314 1.3131721436714088  3.38077665948731 1.2841920962084714  Z " stroke-width="0" stroke-dasharray="0" stroke="rgba(121, 121, 121, 1)" fill="none" transform="matrix(1 0 0 1 14 805 )" class="stroke" mask="url(#Clip56)" />
  </g>
</svg>