<?xml version="1.0" encoding="utf-8"?>
<svg version="1.1" xmlns:xlink="http://www.w3.org/1999/xlink" width="8px" height="5px" xmlns="http://www.w3.org/2000/svg">
  <defs>
    <pattern id="BGPattern" patternUnits="userSpaceOnUse" alignment="0 0" imageRepeat="None" />
    <mask fill="white" id="Clip1684">
      <path d="M 6.901898833640148 0.224074115252899  C 7.2024171371747725 -0.0721474143848342  7.687274897024671 -0.07460540418111147  7.9908565839293155 0.21631756884378894  C 7.9908565839293155 0.21631756884378894  8 0.2252232279716748  8 0.2252232279716748  C 8 0.2252232279716748  3.2570107229936904 4.900411395966716  3.2570107229936904 4.900411395966716  C 3.1220981082422883 5.033395485183978  2.903593107124127 5.033166942705668  2.7689658333033016 4.899900995268357  C 2.7689658333033016 4.899900995268357  2.7646172638503486 4.895518051182202  2.7646172638503486 4.895518051182202  C 2.7646172638503486 4.895518051182202  0 2.058497869288397  0 2.058497869288397  C 0.30586739693539894 1.7676679753080495  0.7906916489727315 1.7738319577546868  1.0889219592554873 2.0701060716681905  C 1.0889219592554873 2.0701060716681905  1.0979018061883437 2.079172836175745  1.0979018061883437 2.079172836175745  L 3.019435271792173 4.051029861821852  C 3.019435271792173 4.051029861821852  6.901898833640148 0.224074115252899  6.901898833640148 0.224074115252899  Z " fill-rule="evenodd" />
    </mask>
  </defs>
  <g transform="matrix(1 0 0 1 -21 -48 )">
    <path d="M 6.901898833640148 0.224074115252899  C 7.2024171371747725 -0.0721474143848342  7.687274897024671 -0.07460540418111147  7.9908565839293155 0.21631756884378894  C 7.9908565839293155 0.21631756884378894  8 0.2252232279716748  8 0.2252232279716748  C 8 0.2252232279716748  3.2570107229936904 4.900411395966716  3.2570107229936904 4.900411395966716  C 3.1220981082422883 5.033395485183978  2.903593107124127 5.033166942705668  2.7689658333033016 4.899900995268357  C 2.7689658333033016 4.899900995268357  2.7646172638503486 4.895518051182202  2.7646172638503486 4.895518051182202  C 2.7646172638503486 4.895518051182202  0 2.058497869288397  0 2.058497869288397  C 0.30586739693539894 1.7676679753080495  0.7906916489727315 1.7738319577546868  1.0889219592554873 2.0701060716681905  C 1.0889219592554873 2.0701060716681905  1.0979018061883437 2.079172836175745  1.0979018061883437 2.079172836175745  L 3.019435271792173 4.051029861821852  C 3.019435271792173 4.051029861821852  6.901898833640148 0.224074115252899  6.901898833640148 0.224074115252899  Z " fill-rule="nonzero" fill="rgba(255, 255, 255, 1)" stroke="none" transform="matrix(1 0 0 1 21 48 )" class="fill" />
    <path d="M 6.901898833640148 0.224074115252899  C 7.2024171371747725 -0.0721474143848342  7.687274897024671 -0.07460540418111147  7.9908565839293155 0.21631756884378894  C 7.9908565839293155 0.21631756884378894  8 0.2252232279716748  8 0.2252232279716748  C 8 0.2252232279716748  3.2570107229936904 4.900411395966716  3.2570107229936904 4.900411395966716  C 3.1220981082422883 5.033395485183978  2.903593107124127 5.033166942705668  2.7689658333033016 4.899900995268357  C 2.7689658333033016 4.899900995268357  2.7646172638503486 4.895518051182202  2.7646172638503486 4.895518051182202  C 2.7646172638503486 4.895518051182202  0 2.058497869288397  0 2.058497869288397  C 0.30586739693539894 1.7676679753080495  0.7906916489727315 1.7738319577546868  1.0889219592554873 2.0701060716681905  C 1.0889219592554873 2.0701060716681905  1.0979018061883437 2.079172836175745  1.0979018061883437 2.079172836175745  L 3.019435271792173 4.051029861821852  C 3.019435271792173 4.051029861821852  6.901898833640148 0.224074115252899  6.901898833640148 0.224074115252899  Z " stroke-width="0" stroke-dasharray="0" stroke="rgba(121, 121, 121, 1)" fill="none" transform="matrix(1 0 0 1 21 48 )" class="stroke" mask="url(#Clip1684)" />
  </g>
</svg>