<?xml version="1.0" encoding="utf-8"?>
<svg version="1.1" xmlns:xlink="http://www.w3.org/1999/xlink" width="10px" height="6px" xmlns="http://www.w3.org/2000/svg">
  <defs>
    <pattern id="BGPattern" patternUnits="userSpaceOnUse" alignment="0 0" imageRepeat="None" />
    <mask fill="white" id="Clip1671">
      <path d="M 5 4.731633099642667  C 5 4.731633099642667  0.8216153383255005 0.15442218563773416  0.8216153383255005 0.15442218563773416  C 0.6336594671010971 -0.05147406187924472  0.3289227783679962 -0.05147406187924472  0.14096690714359283 0.15442218563773416  C -0.04698896408081055 0.360318433154713  -0.04698896408081055 0.6941421682184393  0.14096690714359283 0.9000384157354182  C 0.14096690714359283 0.9000384157354182  4.6526947021484375 5.842410174283114  4.6526947021484375 5.842410174283114  C 4.844506189227104 6.0525300394405015  5.155493810772896 6.0525300394405015  5.3473052978515625 5.842410174283114  C 5.3473052978515625 5.842410174283114  9.85903263092041 0.9000384157354182  9.85903263092041 0.9000384157354182  C 10.046988531947136 0.6941421682184393  10.046988531947136 0.360318433154713  9.85903263092041 0.15442218563773416  C 9.671076744794846 -0.05147406187924472  9.366340667009354 -0.05147406187924472  9.178384780883789 0.15442218563773416  C 9.178384780883789 0.15442218563773416  5 4.731633099642667  5 4.731633099642667  Z " fill-rule="evenodd" />
    </mask>
  </defs>
  <g transform="matrix(1 0 0 1 -1193 -37 )">
    <path d="M 5 4.731633099642667  C 5 4.731633099642667  0.8216153383255005 0.15442218563773416  0.8216153383255005 0.15442218563773416  C 0.6336594671010971 -0.05147406187924472  0.3289227783679962 -0.05147406187924472  0.14096690714359283 0.15442218563773416  C -0.04698896408081055 0.360318433154713  -0.04698896408081055 0.6941421682184393  0.14096690714359283 0.9000384157354182  C 0.14096690714359283 0.9000384157354182  4.6526947021484375 5.842410174283114  4.6526947021484375 5.842410174283114  C 4.844506189227104 6.0525300394405015  5.155493810772896 6.0525300394405015  5.3473052978515625 5.842410174283114  C 5.3473052978515625 5.842410174283114  9.85903263092041 0.9000384157354182  9.85903263092041 0.9000384157354182  C 10.046988531947136 0.6941421682184393  10.046988531947136 0.360318433154713  9.85903263092041 0.15442218563773416  C 9.671076744794846 -0.05147406187924472  9.366340667009354 -0.05147406187924472  9.178384780883789 0.15442218563773416  C 9.178384780883789 0.15442218563773416  5 4.731633099642667  5 4.731633099642667  Z " fill-rule="nonzero" fill="rgba(255, 255, 255, 1)" stroke="none" transform="matrix(1 0 0 1 1193 37 )" class="fill" />
    <path d="M 5 4.731633099642667  C 5 4.731633099642667  0.8216153383255005 0.15442218563773416  0.8216153383255005 0.15442218563773416  C 0.6336594671010971 -0.05147406187924472  0.3289227783679962 -0.05147406187924472  0.14096690714359283 0.15442218563773416  C -0.04698896408081055 0.360318433154713  -0.04698896408081055 0.6941421682184393  0.14096690714359283 0.9000384157354182  C 0.14096690714359283 0.9000384157354182  4.6526947021484375 5.842410174283114  4.6526947021484375 5.842410174283114  C 4.844506189227104 6.0525300394405015  5.155493810772896 6.0525300394405015  5.3473052978515625 5.842410174283114  C 5.3473052978515625 5.842410174283114  9.85903263092041 0.9000384157354182  9.85903263092041 0.9000384157354182  C 10.046988531947136 0.6941421682184393  10.046988531947136 0.360318433154713  9.85903263092041 0.15442218563773416  C 9.671076744794846 -0.05147406187924472  9.366340667009354 -0.05147406187924472  9.178384780883789 0.15442218563773416  C 9.178384780883789 0.15442218563773416  5 4.731633099642667  5 4.731633099642667  Z " stroke-width="0" stroke-dasharray="0" stroke="rgba(121, 121, 121, 1)" fill="none" transform="matrix(1 0 0 1 1193 37 )" class="stroke" mask="url(#Clip1671)" />
  </g>
</svg>